<svg xmlns="http://www.w3.org/2000/svg" viewBox="0 0 1704.8 666.88"><defs><style>.cls-1{fill:#e9202a;}.cls-2{fill:#f9cc3e;}.cls-3{fill:#e66024;}.cls-4{fill:#251b35;}</style></defs><g id="Capa_2" data-name="Capa 2"><g id="Capa_1-2" data-name="Capa 1"><path class="cls-1" d="M863.23,187.83c-1.26,9-2.42,16.4-3.28,23.78-.83,7.21,1,13.23,9.07,14.85,8.28,1.68,11.66-3.68,13.69-10.55,4.36-14.78,5-30.09,6.3-45.28,2.64-30.25,14-56.53,35-78.54a28.87,28.87,0,0,1,3.6-3.21c.37-.28,1.18,0,2,.09,1.26,4.61-2,8-3.52,11.68-8.26,19.58-9.45,39.42-4.55,60.11,6.82,28.81,19.11,56,25.07,85,4.15,20.15,2.47,39.59-12.82,55.51-23.85,24.83-67.59,17.42-82.33-13.59C837.23,257.77,845.42,215.47,863.23,187.83Z"/><path class="cls-2" d="M938.07,309.23c25.67-23.79,27.3-50.85,16-80.48C948.11,213,942.76,197,937.32,181c-9.12-26.81-2.18-50.13,17.11-73.25-1.73,8.67-2.69,15-4.28,21.15-4.53,17.65-.11,32.73,12.49,45.61,8.86,9.06,18.07,17.79,26.59,27.16,21.3,23.4,26.43,53.44,13.66,77.33C991.7,299.91,967.8,311.48,938.07,309.23Z"/><path class="cls-3" d="M963.84,0c18.7,23.25,18.92,55.82.92,78.49-9.46,11.92-19.5,23.38-29.93,34.62,2-13.8,9.06-25.3,15.91-36.85,6.5-11,11.9-22.32,14.64-34.86A84.48,84.48,0,0,0,963.84,0Z"/><path class="cls-4" d="M185,449.52a17.27,17.27,0,0,1,5.2-3.73,12.82,12.82,0,0,1,5.2-1.14,9.78,9.78,0,0,1,8.62,4.71q3.09,4.72-1.14,12.2a69,69,0,0,1-15.61,19.18,99.56,99.56,0,0,1-21.78,14.31,112,112,0,0,1-25.85,8.78,135.52,135.52,0,0,1-28.13,2.92,130.28,130.28,0,0,1-40.48-6.5,102.48,102.48,0,0,1-35.77-20.16Q19.5,466.44,9.75,445T0,393.92A149.33,149.33,0,0,1,6.83,348.4a106.34,106.34,0,0,1,20.65-37.56,100.35,100.35,0,0,1,34.46-25.68q20.66-9.59,48.29-9.6A157,157,0,0,1,147,279.63a94.35,94.35,0,0,1,29.27,12,58.29,58.29,0,0,1,19.34,20.16q7,12.19,7,28.45a26.23,26.23,0,0,1-4.06,14.47,37.69,37.69,0,0,1-10.41,10.73,54.38,54.38,0,0,1-13.49,6.83A42.2,42.2,0,0,1,161,374.74q-11.38,0-16.09-8.13t-5.69-23.74q-1.63-23.73-8.29-35.76t-23.9-12q-12,0-20.49,5.53a42.79,42.79,0,0,0-13.82,15,72.29,72.29,0,0,0-7.8,21.95A138.13,138.13,0,0,0,62.43,364q0,29.6,6.83,49.26T86.82,445Q97.55,457,110.88,462a75.63,75.63,0,0,0,54.3,0Q177.87,457,185,449.52Z"/><path class="cls-4" d="M287.11,445q0,15.28,2.93,21.95t6.5,9.59q3.58,2.92,6.51,4.88t2.92,7.8a13.55,13.55,0,0,1-2.27,7.65c-1.52,2.27-4.07,4.12-7.64,5.52a61.15,61.15,0,0,1-14.47,3.25,192,192,0,0,1-23.09,1.14,191.86,191.86,0,0,1-23.09-1.14,61,61,0,0,1-14.47-3.25c-3.57-1.4-6.07-3.19-7.47-5.36a13.34,13.34,0,0,1-2.12-7.48q0-5.85,2.93-7.8t6.34-4.72a26.7,26.7,0,0,0,6.34-8.13q2.92-5.36,2.93-18V391.65q-1-11.72-4.23-15.61a18.1,18.1,0,0,0-6.83-5.37c-2.39-1-4.55-1.89-6.5-2.76s-2.93-3.47-2.93-7.8c0-2.39,1.19-5.09,3.58-8.13a42.12,42.12,0,0,1,9.92-8.78A64.09,64.09,0,0,1,237.85,336a57.82,57.82,0,0,1,18.7-2.92q16.9,0,23.74,6.34t6.82,22ZM254.27,317.19q-15.6,0-23.41-11.39t-7.8-27q0-31.22,31.21-31.22t31.22,31.22q0,15.6-7.81,27T254.27,317.19Z"/><path class="cls-4" d="M458.8,457.33a9.72,9.72,0,0,1,4.88-1.3,6.16,6.16,0,0,1,6,3.9q1.79,3.9-1.14,8.45a75.22,75.22,0,0,1-32.19,28.29,98.56,98.56,0,0,1-42.27,9.43,101.36,101.36,0,0,1-32.51-5.36,84.88,84.88,0,0,1-28.46-16.1,79.38,79.38,0,0,1-20.16-27q-7.63-16.25-7.64-38A94.19,94.19,0,0,1,312,383.52a79.89,79.89,0,0,1,48-46,109.37,109.37,0,0,1,38-6.34q32.85,0,49.92,14.63T465,382.87q0,14.31-6.51,21.78a39,39,0,0,1-16.09,11.06,82.86,82.86,0,0,1-20.81,4.71q-11.22,1.15-20.81,2.93a48.4,48.4,0,0,0-16.1,5.69q-6.51,3.9-6.5,13a23.44,23.44,0,0,0,9.27,18.69,36.44,36.44,0,0,0,12.19,6A60.46,60.46,0,0,0,417.18,469,77.32,77.32,0,0,0,439.29,466,82.83,82.83,0,0,0,458.8,457.33Zm-95.92-26.66q0-9.44,4.55-14.31a32.84,32.84,0,0,1,11.54-7.8,111.17,111.17,0,0,1,15.12-5,88.56,88.56,0,0,0,15.12-5.37,31.48,31.48,0,0,0,11.54-8.94q4.56-5.68,4.56-16.1,0-11-7.48-17.88t-21.14-6.83q-15.29,0-24.71,8.29a44.9,44.9,0,0,0-13.33,20.81,70.41,70.41,0,0,0-2.76,26.83A72.5,72.5,0,0,0,362.88,430.67Z"/><path class="cls-4" d="M667.22,447.9q1,11.7,4.23,15.77a17.46,17.46,0,0,0,6.83,5.53c2.38,1,4.49,1.9,6.34,2.76s2.76,3.47,2.76,7.81q0,5.85-5.53,10.89a51.35,51.35,0,0,1-13.33,8.61,85.24,85.24,0,0,1-16.09,5.53,63.48,63.48,0,0,1-14.15,1.95q-16.9,0-23.57-6.5T608,478.14V396.52q0-10.39-4.88-15.28a16.74,16.74,0,0,0-12.35-4.88,30.11,30.11,0,0,0-11.22,2.44,46.84,46.84,0,0,0-11.38,6.67,51.87,51.87,0,0,0-9.76,10.24,40,40,0,0,0-6.34,13.5V451.8q0,12,2.93,17.4a26.82,26.82,0,0,0,6.34,8.13q3.42,2.76,6.34,4.71t2.93,7.81a13.38,13.38,0,0,1-2.12,7.47q-2.12,3.26-7.47,5.37a57.34,57.34,0,0,1-14.47,3.09,275.3,275.3,0,0,1-46.18,0,52.17,52.17,0,0,1-14.47-3.25c-3.57-1.52-6.07-3.36-7.47-5.53a13.34,13.34,0,0,1-2.12-7.48c0-3.9,1-6.55,2.93-8s4.06-3.09,6.34-5,4.39-5.14,6.34-9.59,2.93-11.65,2.93-21.62V392q-1-11.7-4.23-15.61a18,18,0,0,0-6.83-5.36c-2.39-1-4.55-1.9-6.5-2.77s-2.93-3.46-2.93-7.8q0-3.57,3.58-8.13a42.34,42.34,0,0,1,9.92-8.78,64.08,64.08,0,0,1,15-7.15,57.82,57.82,0,0,1,18.7-2.93q16.91,0,23.74,6.34t6.82,22v8.78Q564.47,353,580.57,343.2t36.9-9.76q23.73,0,36.74,13.5t13,42.11Z"/><path class="cls-4" d="M802.49,330.19q7.14-2.6,11.54.81a11.9,11.9,0,0,1,4.88,8.46,12.85,12.85,0,0,1-3.25,9.59q-3.75,4.56-13.17,4.55H772.25v93.65a62.62,62.62,0,0,0,1.46,15.12,37.56,37.56,0,0,0,3.41,9.1,15.38,15.38,0,0,0,4.56,5.21q2.6,1.79,4.55,3.41a21.3,21.3,0,0,1,3.41,3.58q1.47,1.95,1.47,5.85a12.78,12.78,0,0,1-2.28,7.48q-2.28,3.25-7.64,5.36a61,61,0,0,1-14.47,3.25,234.31,234.31,0,0,1-46.17,0,60.92,60.92,0,0,1-14.47-3.25q-5.37-2.1-7.48-5.36a13.42,13.42,0,0,1-2.12-7.48q0-3.9,1.47-5.85a21.3,21.3,0,0,1,3.41-3.58q1.95-1.62,4.55-3.41a15.38,15.38,0,0,0,4.56-5.21,37.56,37.56,0,0,0,3.41-9.1,62.62,62.62,0,0,0,1.46-15.12V353.6h-16.9q-9.12,0-13.17-4.55t-3.58-9.43a11.67,11.67,0,0,1,5-8.29c3-2.28,6.93-2.65,11.71-1.14l16.9,5.53v-8.46q0-18.52,6.67-31.86a66.76,66.76,0,0,1,17.07-21.95,68.92,68.92,0,0,1,23.09-12.68,80.69,80.69,0,0,1,24.71-4.06,63,63,0,0,1,15.28,1.78,45.66,45.66,0,0,1,12.52,5,25.35,25.35,0,0,1,8.45,8.13A20.82,20.82,0,0,1,826.22,283,34.69,34.69,0,0,1,824,294.59a41.43,41.43,0,0,1-6.51,11.7,37.58,37.58,0,0,1-10.56,9.11,27.38,27.38,0,0,1-14.15,3.74q-7.8,0-12.19-3.58a23.07,23.07,0,0,1-6.67-8.78,51.4,51.4,0,0,1-3.41-11.54q-1.14-6.35-2.28-11.55a33.42,33.42,0,0,0-3.09-8.78,6.54,6.54,0,0,0-6.17-3.57c-3.26,0-4.39,1.74-3.42,5.2a95.9,95.9,0,0,0,5.2,13.33q3.74,8.13,7.64,18.05a52.47,52.47,0,0,1,3.91,19.34V338Z"/><path class="cls-4" d="M1005.71,445.3q0,8.77,1.46,13.65a18.37,18.37,0,0,0,3.74,7.32,11.14,11.14,0,0,0,5,3.25q2.76.83,5,1.63a8,8,0,0,1,3.74,2.76c1,1.3,1.46,3.37,1.46,6.18q0,3.26-3.74,8a46.57,46.57,0,0,1-10.08,9.1,59.83,59.83,0,0,1-15,7.32A56.82,56.82,0,0,1,979,507.4q-18.21,0-25.36-7t-7.15-25.2a90.18,90.18,0,0,1-28.13,23.58,74.71,74.71,0,0,1-35.28,8.29q-23.73,0-36.58-13.5t-12.84-42.1V392.62q-1-11.7-4.23-15.77a17.24,17.24,0,0,0-7-5.53q-3.74-1.45-6.5-2.76c-1.84-.86-2.77-3.46-2.77-7.8q0-5.85,5.53-10.9a51.18,51.18,0,0,1,13.33-8.61,85.09,85.09,0,0,1,16.1-5.53,63.4,63.4,0,0,1,14.14-2q16.91,0,23.74,6.34t6.83,22.27V444q0,10.41,4.71,15.12a16.1,16.1,0,0,0,11.87,4.71,29.41,29.41,0,0,0,10.89-2.27,40,40,0,0,0,10.9-6.67,49.05,49.05,0,0,0,9.26-10.57,45.51,45.51,0,0,0,6-13.65V392.62q-1-11.7-4.23-15.77a17.24,17.24,0,0,0-7-5.53q-3.73-1.45-6.5-2.76t-2.77-7.8q0-5.85,5.53-10.9a51.18,51.18,0,0,1,13.33-8.61,85.09,85.09,0,0,1,16.1-5.53,63.4,63.4,0,0,1,14.14-2q16.9,0,23.74,6.34t6.83,22.27Z"/><path class="cls-4" d="M1180,457.33a9.74,9.74,0,0,1,4.88-1.3,6.16,6.16,0,0,1,6,3.9q1.78,3.9-1.13,8.45a75.34,75.34,0,0,1-32.19,28.29,98.62,98.62,0,0,1-42.27,9.43,101.42,101.42,0,0,1-32.52-5.36,84.83,84.83,0,0,1-28.45-16.1,79.25,79.25,0,0,1-20.16-27q-7.65-16.25-7.64-38a94.38,94.38,0,0,1,6.66-36.09,79.89,79.89,0,0,1,48-46,109.39,109.39,0,0,1,38-6.34q32.83,0,49.91,14.63t17.07,37.07q0,14.31-6.5,21.78a39,39,0,0,1-16.1,11.06,82.86,82.86,0,0,1-20.81,4.71q-11.22,1.15-20.81,2.93a48.25,48.25,0,0,0-16.09,5.69q-6.51,3.9-6.51,13a23.52,23.52,0,0,0,9.27,18.69,36.44,36.44,0,0,0,12.19,6,60.51,60.51,0,0,0,17.56,2.27,77.27,77.27,0,0,0,22.11-3.08A82.65,82.65,0,0,0,1180,457.33Zm-95.92-26.66q0-9.44,4.55-14.31a32.79,32.79,0,0,1,11.55-7.8,110.25,110.25,0,0,1,15.12-5,88.76,88.76,0,0,0,15.11-5.37,31.6,31.6,0,0,0,11.55-8.94q4.54-5.68,4.55-16.1,0-11-7.48-17.88t-21.13-6.83q-15.3,0-24.72,8.29a44.9,44.9,0,0,0-13.33,20.81,70.61,70.61,0,0,0-2.76,26.83A72.9,72.9,0,0,0,1084.07,430.67Z"/><path class="cls-4" d="M1361.43,346.77a54,54,0,0,1-10.41,1.79,93.32,93.32,0,0,1-12.36.17,62.58,62.58,0,0,1,21.79,20.16q8.46,12.67,8.45,32.84,0,24.06-9.1,38.69A73.45,73.45,0,0,1,1337,463.83a114.77,114.77,0,0,1-29.43,13.5q-15.77,4.71-29.42,9.26a89.09,89.09,0,0,0-22.77,10.9q-9.11,6.33-9.1,18.37,0,7.47,2.11,12a20.36,20.36,0,0,0,5.21,7.15,17.19,17.19,0,0,0,7,3.58,30.8,30.8,0,0,0,7.48,1,25.71,25.71,0,0,0,13.49-3.41,49.3,49.3,0,0,0,10.57-8.62,142.59,142.59,0,0,0,9.43-11.21,87.81,87.81,0,0,1,10.08-11.22,49.36,49.36,0,0,1,12.68-8.62,38.8,38.8,0,0,1,16.91-3.41q16.24,0,25.2,9.59t8.94,26.17a52.93,52.93,0,0,1-2.93,17.73,46,46,0,0,1-8.13,14.46,37.57,37.57,0,0,1-12.68,9.76,38,38,0,0,1-16.58,3.58q-8.13,0-12.68-2.77a17.22,17.22,0,0,1-6.83-7.64,30.14,30.14,0,0,1-2.6-11.38,108.22,108.22,0,0,1,.32-14.31,4.22,4.22,0,0,0-.16-1,2.47,2.47,0,0,0-.65-1.14.71.71,0,0,0-1-.16,7,7,0,0,0-1.46,2,77.69,77.69,0,0,1-8.78,14,62.6,62.6,0,0,1-14,13,73.47,73.47,0,0,1-19.83,9.43q-11.4,3.57-26.67,3.57a67,67,0,0,1-17.72-2.44,48.78,48.78,0,0,1-16.09-7.64,42,42,0,0,1-11.71-13,35.57,35.57,0,0,1-4.55-18.21q0-14.64,5.2-24.06a50,50,0,0,1,13.49-15.77,78.37,78.37,0,0,1,19-10.57q10.72-4.23,21.94-8.29t21.95-9.11a66.66,66.66,0,0,0,19-13.33,64.29,64.29,0,0,0,13.5-20.48q5.19-12.19,5.2-30.73a97.07,97.07,0,0,0-2-20,57.61,57.61,0,0,0-5.85-16.26,30.2,30.2,0,0,0-9.92-10.89,26,26,0,0,0-14.47-3.9q-12,0-19.18,8.94t-7.16,27.48a76.67,76.67,0,0,0,1.63,16.09,48.24,48.24,0,0,0,4.88,13.5,27.83,27.83,0,0,0,8,9.26,18.06,18.06,0,0,0,10.9,3.42,27.16,27.16,0,0,0,9.42-2,8.47,8.47,0,0,1,5.86-.49,6.84,6.84,0,0,1,4.22,2.92q1.3,2.13.65,5.86t-4.87,8.29A41,41,0,0,1,1275.26,458a61.59,61.59,0,0,1-21.79,3.9,67.7,67.7,0,0,1-20.64-3.25,51.61,51.61,0,0,1-18.21-10.08,52.25,52.25,0,0,1-13-17.23q-5-10.41-5-24.72a68.23,68.23,0,0,1,5.69-27.63,63,63,0,0,1,16.75-22.6,81.14,81.14,0,0,1,27.15-15.12q16.1-5.53,36.9-5.53h6q3.09,0,6.34.32,14,0,22.27-3.41a46.44,46.44,0,0,0,13.66-8.29,70.11,70.11,0,0,0,9.43-10.41,44.6,44.6,0,0,1,9.92-9.75q7.14-5.21,13.33-5.2a14.53,14.53,0,0,1,12.19,6.34,26.53,26.53,0,0,1,5.2,14.63A27.44,27.44,0,0,1,1377.2,336Q1372.48,343.86,1361.43,346.77Z"/><path class="cls-4" d="M1466.45,332.47q21.79,0,38.21,7A77.89,77.89,0,0,1,1532,358.32,77.09,77.09,0,0,1,1548.23,386a102.66,102.66,0,0,1,5.37,33.33,101.12,101.12,0,0,1-5.53,33.65,79.08,79.08,0,0,1-16.42,27.64,75.85,75.85,0,0,1-27.48,18.69q-16.58,6.84-39,6.83-21.45,0-37.55-6.5a75.14,75.14,0,0,1-27-18.05,73.63,73.63,0,0,1-16.26-27.47,108.32,108.32,0,0,1-5.36-34.79,105.73,105.73,0,0,1,5.52-34.8A75.47,75.47,0,0,1,1400.94,357a74.61,74.61,0,0,1,27.31-18Q1444.66,332.48,1466.45,332.47ZM1479.79,485q8.12-2.93,11.7-14.47t3.42-27a168.67,168.67,0,0,0-3.74-32.52,171.78,171.78,0,0,0-9.27-30.72q-5.7-13.66-13.17-21.46t-15.93-4.88q-8.13,2.61-11.71,14.3t-3.25,27.16a173.13,173.13,0,0,0,3.9,32.35A171,171,0,0,0,1451,458.3q5.68,13.67,13.17,21.63T1479.79,485Z"/><path class="cls-4" d="M1618.63,365.31a21.39,21.39,0,0,0,6.34,15.77,72.07,72.07,0,0,0,15.93,11.7q9.58,5.37,20.81,10.41a115.56,115.56,0,0,1,20.81,12,62.37,62.37,0,0,1,15.93,16.91q6.35,9.92,6.35,24.87a38.09,38.09,0,0,1-6.67,22.28,56.46,56.46,0,0,1-17.4,16.09,84.37,84.37,0,0,1-24.38,9.76,120.81,120.81,0,0,1-28,3.25,109.73,109.73,0,0,1-25.36-2.93,75,75,0,0,1-22-8.78,48.06,48.06,0,0,1-15.44-14.79,37.43,37.43,0,0,1-5.86-21,19.44,19.44,0,0,1,3.58-11.55,35.78,35.78,0,0,1,8.62-8.61,37.16,37.16,0,0,1,11-5.37,38.68,38.68,0,0,1,10.9-1.79q8.11,0,12.68,6t4.55,21.62q0,15.93,6.83,23.25t14.3,7.32a16.7,16.7,0,0,0,11.71-4.88q5.21-4.87,5.2-14.31a24.2,24.2,0,0,0-6-16.58,66.38,66.38,0,0,0-15-12.36q-8.94-5.52-19.35-10.89a129.94,129.94,0,0,1-19.34-12.19,63.9,63.9,0,0,1-15-16.1q-6-9.27-6-22.27t6-22.44a51.09,51.09,0,0,1,15.61-15.61,70.18,70.18,0,0,1,21.78-9.1,106.28,106.28,0,0,1,24.88-2.93,102,102,0,0,1,22.27,2.44,72,72,0,0,1,19.35,7.15A42.68,42.68,0,0,1,1692,353.12a24.89,24.89,0,0,1,5,15.44,22.43,22.43,0,0,1-2.93,11.54,28,28,0,0,1-7.47,8.46,31.86,31.86,0,0,1-9.92,5,36.12,36.12,0,0,1-10.57,1.62q-10.72,0-13.66-7.15t-1-18.86a19.57,19.57,0,0,0-.65-8.78,19,19,0,0,0-3.74-6.66,14.79,14.79,0,0,0-5.85-4.07,19.67,19.67,0,0,0-7-1.3,16.37,16.37,0,0,0-10.73,4.07Q1618.62,356.54,1618.63,365.31Z"/><path class="cls-4" d="M602.94,618.52h12.12V666h-3.28V661.6c-1.43,3.14-4.28,5.28-9.13,5.28-8.13,0-11.13-6.13-11.13-12.69v-75.9c0-6.7,3.28-13,11.7-13,9,0,11.84,6.28,11.84,13v17.26h-4V577.86c0-4.42-1.43-9.13-7.85-9.13-5.71,0-7.7,4.71-7.7,9.13v76.47c0,4.42,2,9.13,7.84,9.13,6.28,0,7.85-4.85,7.85-9.13V621.94h-8.27Z"/><path class="cls-4" d="M668.56,633.78H656.29L652.86,666h-3.71L660,566.17h5L675.83,666H672Zm-.29-3.42-5.85-55.92-5.85,55.92Z"/><path class="cls-4" d="M727.33,595.55V577.72c0-4.28-1.71-9-7-9s-7,4.71-7,9v12.84c0,10.56,1.85,14.12,5,17.69l6.85,8c3.85,4.42,7,8.27,7,21.4v16.12c0,6.42-2.85,13.12-11.7,13.12s-11.7-6.7-11.7-13.12V635.35h4v18.84c0,4.42,1.71,9.27,7.7,9.27s7.71-4.85,7.71-9.27V637.78c0-11.27-2-14-5.14-17.55l-7-8.13c-3.57-4.14-6.71-8.56-6.71-21.4V578.15c0-6.28,2.72-12.84,11-12.84s11,6.56,11,12.84v17.4Z"/><path class="cls-4" d="M779,569.73V666h-4V569.73h-9.85v-3.56h23.68v3.56Z"/><path class="cls-4" d="M827.19,620.66V666h-4V566.17H834.6c8.85,0,12.13,6.42,12.13,13.12v28.1c0,4.71-1.71,9.28-6.42,11.27,4.71,2.14,6.42,6.85,6.42,11.7v19.83A77.58,77.58,0,0,0,848.16,666h-4a78.39,78.39,0,0,1-1.42-15.83V629.93c0-4.42-2-9.27-8.42-9.27Zm15.55-13V579c0-4.57-2-9.42-8.42-9.42h-7.13V617h7.13C840.6,617,842.74,612.24,842.74,607.68Z"/><path class="cls-4" d="M883.25,653.61v-75c0-6.85,3.28-13.27,12-13.27s12,6.42,12,13.27v75c0,6.85-3.14,13.27-12,13.27S883.25,660.46,883.25,653.61Zm20,.43V578.15c0-4.57-2-9.42-8-9.42s-8,4.85-8,9.42V654c0,4.57,2,9.42,8,9.42S903.22,658.61,903.22,654Z"/><path class="cls-4" d="M955.43,666H944.16V566.17h10.42c8.84,0,12.12,6.42,12.12,13.12v22.26c0,4.42-1.71,8.84-5.7,11,4.7,1.85,6.7,6.7,6.7,11.55V652.9C967.7,659.61,964.42,666,955.43,666Zm7.28-64.19v-23c0-4.56-2-9.27-8.27-9.27h-6.28V611.1h6.28C960.71,611.1,962.71,606.25,962.71,601.83Zm1,51.36V623.94c0-4.56-2-9.41-8.42-9.41h-7.13V662.6h7.13C961.71,662.6,963.71,657.75,963.71,653.19Z"/><path class="cls-4" d="M1020.2,633.78h-12.27L1004.51,666h-3.71l10.84-99.85h5L1027.47,666h-3.85Zm-.29-3.42-5.85-55.92-5.85,55.92Z"/><path class="cls-4" d="M1065.85,620.66V666h-4V566.17h11.41c8.85,0,12.13,6.42,12.13,13.12v28.1c0,4.71-1.71,9.28-6.42,11.27,4.71,2.14,6.42,6.85,6.42,11.7v19.83a77.58,77.58,0,0,0,1.43,15.83h-4a78.39,78.39,0,0,1-1.42-15.83V629.93c0-4.42-2-9.27-8.42-9.27Zm15.55-13V579c0-4.57-2-9.42-8.42-9.42h-7.13V617H1073C1079.26,617,1081.4,612.24,1081.4,607.68Z"/><path class="cls-4" d="M104.4,626.44V532l-6-.2V632.44H546.1c-.42-2-.89-4-1.39-6Z"/><path class="cls-4" d="M1640.4,535.23v91.21H1136.59q.62,3,1,6H1646.4V535.23Z"/></g></g></svg>